#!OML:ASF I:\Actors\actors\Patient Classification 2\Patient 1\Session 1\actor1.ASF
:FULLY-SPECIFIED
:DEGREES
648
root -0.497685 18.7374 5.51969 1.4046 11.8251 -3.79982
lowerback 10.7451 4.14875 2.06819
upperback -0.396916 5.80284 0.269315
thorax -6.25319 2.78393 -1.79146
lowerneck -9.11931 -10.1983 -8.81207
upperneck 17.6817 -14.8369 11.5064
head 8.53535 -6.64577 3.62682
rclavicle -4.09248e-014 -7.7526e-015
rhumerus 0.848252 8.25591 -68.9353
rradius 64.6844
rwrist -26.519
rhand -14.9564 -41.918
rfingers 7.12502
rthumb 11.2068 -431.599
lclavicle -4.09248e-014 -7.7526e-015
lhumerus -38.46 -18.7932 98.6722
lradius 71.7967
lwrist 10.2109
lhand -4.9339 -27.3218
lfingers 7.12502
lthumb 20.8569 1.57705
rfemur 0 0 0
rtibia 0
rfoot 0 0
rtoes 0
lfemur -11.9059 -7.51462 -10.3041
ltibia 26.0656
lfoot -18.2805 5.32407
ltoes -57.3472
649
root -0.499102 18.7375 5.52508 1.45447 11.8634 -3.77982
lowerback 10.6784 4.15677 1.9972
upperback -0.413777 5.80432 0.28376
thorax -6.24194 2.78749 -1.73282
lowerneck -9.03275 -10.2556 -8.89963
upperneck 17.4646 -14.9117 11.6371
head 8.47324 -6.68561 3.67772
rclavicle 1.76173e-014 -8.94531e-015
rhumerus 0.367563 8.13109 -69.3781
rradius 64.1353
rwrist -26.3687
rhand -14.5388 -42.1798
rfingers 7.12502
rthumb 11.6095 -431.838
lclavicle 1.76173e-014 -8.94531e-015
lhumerus -38.4765 -18.791 98.715
lradius 71.7915
lwrist 10.1699
lhand -4.96462 -27.3745
lfingers 7.12502
lthumb 20.8274 1.5276
rfemur 0 0 0
rtibia 0
rfoot 0 0
rtoes 0
lfemur -11.9509 -7.50983 -10.3092
ltibia 26.0643
lfoot -18.2343 5.24288
ltoes -57.2544
650
root -0.499209 18.7383 5.52926 1.52111 11.8851 -3.77282
lowerback 10.6095 4.15807 1.95753
upperback -0.43857 5.80097 0.297651
thorax -6.2349 2.78752 -1.6915
lowerneck -8.95072 -10.2834 -9.05382
upperneck 17.2529 -14.9498 11.8385
head 8.42113 -6.70605 3.76721
rclavicle -5.75482e-014 -1.5704e-014
rhumerus -0.0238047 8.03335 -69.7516
rradius 63.6346
rwrist -26.4112
rhand -14.2382 -42.5083
rfingers 7.12502
rthumb 11.8995 -432.15
lclavicle -5.75482e-014 -1.5704e-014
lhumerus -38.503 -18.7815 98.7485
lradius 71.82
lwrist 10.1668
lhand -4.94698 -27.322
lfingers 7.12502
lthumb 20.8444 1.57829
rfemur 0 0 0
rtibia 0
rfoot 0 0
rtoes 0
lfemur -12.0161 -7.55596 -10.3021
ltibia 26.0693
lfoot -18.2547 5.23825
ltoes -57.1674
651
root -0.498163 18.7391 5.53496 1.53527 11.8437 -3.7899
lowerback 10.5602 4.17242 1.95548
upperback -0.444472 5.81946 0.307389
thorax -6.21398 2.79737 -1.67917
lowerneck -8.88598 -10.3178 -9.25052
upperneck 17.0625 -15.0047 12.1023
head 8.39035 -6.73054 3.88058
rclavicle 6.57729e-014 1.98785e-015
rhumerus -0.460784 7.93258 -70.1235
rradius 63.2514
rwrist -26.6094
rhand -14.132 -42.8191
rfingers 7.12502
rthumb 12.0018 -432.455
lclavicle 6.57729e-014 1.98785e-015
lhumerus -38.5189 -18.7412 98.7672
lradius 71.8372
lwrist 10.1623
lhand -4.93896 -27.2309
lfingers 7.12502
lthumb 20.8521 1.66853
rfemur 0 0 0
rtibia 0
rfoot 0 0
rtoes 0
lfemur -12.0086 -7.56373 -10.2852
ltibia 26.0792
lfoot -18.3087 5.3141
ltoes -57.2272
652
root -0.497573 18.7384 5.54416 1.47406 11.7567 -3.81526
lowerback 10.5418 4.20046 1.92713
upperback -0.427192 5.85414 0.333832
thorax -6.18971 2.81641 -1.63882
lowerneck -8.87225 -10.3837 -9.44184
upperneck 16.9523 -15.1025 12.3261
head 8.39734 -6.77368 3.97109
rclavicle 5.64548e-014 4.96962e-015
rhumerus -0.837967 7.79154 -70.4755
rradius 62.8608
rwrist -26.7461
rhand -13.8553 -43.2046
rfingers 7.12502
rthumb 12.2687 -432.825
lclavicle 5.64548e-014 4.96962e-015
lhumerus -38.5017 -18.6465 98.7933
lradius 71.809
lwrist 10.1721
lhand -4.8852 -27.2856
lfingers 7.12502
lthumb 20.9037 1.6081
rfemur 0 0 0
rtibia 0
rfoot 0 0
rtoes 0
lfemur -11.9116 -7.50257 -10.2692
ltibia 26.1203
lfoot -18.3377 5.3276
ltoes -57.2723
653
root -0.497505 18.7368 5.55168 1.40639 11.7397 -3.84637
lowerback 10.5483 4.19908 1.90773
upperback -0.410117 5.85138 0.360333
thorax -6.18019 2.8164 -1.59989
lowerneck -8.9541 -10.4568 -9.52105
upperneck 16.9368 -15.2005 12.393
head 8.43116 -6.81613 3.98728
rclavicle 1.47349e-014 3.97569e-015
rhumerus -1.05084 7.6071 -70.8229
rradius 62.3805
rwrist -26.8493
rhand -13.3845 -43.8508
rfingers 7.12502
rthumb 12.7225 -433.443
lclavicle 1.47349e-014 3.97569e-015
lhumerus -38.4815 -18.5844 98.8029
lradius 71.8038
lwrist 10.2247
lhand -4.75884 -27.3974
lfingers 7.12502
lthumb 21.0251 1.48286
rfemur 0 0 0
rtibia 0
rfoot 0 0
rtoes 0
lfemur -11.8721 -7.48211 -10.2407
ltibia 26.2397
lfoot -18.3731 5.25201
ltoes -57.2535
654
root -0.489709 18.7343 5.55342 1.28713 11.8165 -4.02186
lowerback 10.6324 4.13761 2.20332
upperback -0.391364 5.80951 0.381299
thorax -6.18217 2.78665 -1.74062
lowerneck -9.04045 -10.5184 -9.51704
upperneck 16.8739 -15.2686 12.3608
head 8.431 -6.84914 3.96171
rclavicle -1.96176e-014 1.07344e-014
rhumerus -1.16044 7.42023 -71.167
rradius 61.8538
rwrist -27.1401
rhand -12.9344 -44.6622
rfingers 7.12502
rthumb 13.1564 -434.227
lclavicle -1.96176e-014 1.07344e-014
lhumerus -38.4836 -18.5825 98.7979
lradius 71.8258
lwrist 10.2841
lhand -4.73543 -27.4367
lfingers 7.12502
lthumb 21.0476 1.44105
rfemur 0 0 0
rtibia 0
rfoot 0 0
rtoes 0
lfemur -11.8372 -7.49392 -10.0806
ltibia 26.3618
lfoot -18.429 5.15048
ltoes -57.2778
655
root -0.468388 18.7289 5.54773 1.00592 11.9383 -4.50994
lowerback 10.8963 4.00249 3.0709
upperback -0.372641 5.75092 0.431433
thorax -6.23409 2.72919 -2.1786
lowerneck -9.04818 -10.5593 -9.54283
upperneck 16.6982 -15.2985 12.3476
head 8.37824 -6.87147 3.95657
rclavicle 5.04168e-014 1.74931e-014
rhumerus -1.27743 7.31353 -71.4637
rradius 61.4011
rwrist -27.6442
rhand -12.7467 -45.2887
rfingers 7.12502
rthumb 13.3373 -434.842
lclavicle 5.04168e-014 1.74931e-014
lhumerus -38.469 -18.5266 98.7806
lradius 71.8
lwrist 10.2873
lhand -4.75125 -27.4985
lfingers 7.12502
lthumb 21.0324 1.38098
rfemur 0 0 0
rtibia 0
rfoot 0 0
rtoes 0
lfemur -11.7133 -7.44591 -9.63566
ltibia 26.5029
lfoot -18.4956 4.98429
ltoes -57.3045
656
root -0.468763 18.7289 5.55515 1.03105 11.9291 -4.50992
lowerback 10.8594 3.98901 3.03434
upperback -0.407865 5.7271 0.416995
thorax -6.25394 2.71766 -2.16865
lowerneck -8.95287 -10.5929 -9.66316
upperneck 16.4481 -15.3354 12.4986
head 8.30515 -6.89585 4.02469
rclavicle -1.28713e-014 -9.93923e-015
rhumerus -1.45271 7.25066 -71.7046
rradius 61.0987
rwrist -28.3092
rhand -12.5028 -45.8222
rfingers 7.12502
rthumb 13.5724 -435.36
lclavicle -1.28713e-014 -9.93923e-015
lhumerus -38.4721 -18.4236 98.7512
lradius 71.7451
lwrist 10.191
lhand -4.67239 -27.6064
lfingers 7.12502
lthumb 21.1082 1.26465
rfemur 0 0 0
rtibia 0
rfoot 0 0
rtoes 0
lfemur -11.7756 -7.43616 -9.62819
ltibia 26.6209
lfoot -18.5763 4.95853
ltoes -57.2396
657
root -0.468678 18.7288 5.56347 1.04863 11.8928 -4.56016
lowerback 10.8171 3.9903 3.07949
upperback -0.449786 5.73285 0.394342
thorax -6.26752 2.71798 -2.21656
lowerneck -8.85776 -10.6307 -9.77303
upperneck 16.2006 -15.3883 12.6898
head 8.23795 -6.92369 4.10221
rclavicle 4.23163e-014 -3.18055e-015
rhumerus -1.61447 7.12287 -71.8987
rradius 60.87
rwrist -29.1462
rhand -12.0314 -46.5253
rfingers 7.12502
rthumb 14.0268 -436.032
lclavicle 4.23163e-014 -3.18055e-015
lhumerus -38.5253 -18.4101 98.7305
lradius 71.7318
lwrist 10.08
lhand -4.62046 -27.6133
lfingers 7.12502
lthumb 21.158 1.25219
rfemur 0 0 0
rtibia 0
rfoot 0 0
rtoes 0
lfemur -11.8178 -7.46443 -9.56865
ltibia 26.7157
lfoot -18.6451 4.97743
ltoes -57.1417
658
root -0.467507 18.7284 5.57243 1.082 11.8436 -4.56373
lowerback 10.7281 4.00188 3.09864
upperback -0.46983 5.74525 0.351811
thorax -6.23161 2.72375 -2.26675
lowerneck -8.8585 -10.6751 -9.79337
upperneck 16.0013 -15.4393 12.7635
head 8.1865 -6.94944 4.12245
rclavicle 8.34896e-015 -3.77691e-015
rhumerus -1.67533 6.96464 -72.0518
rradius 60.6299
rwrist -29.9671
rhand -11.8872 -47.3669
rfingers 7.12502
rthumb 14.1657 -436.864
lclavicle 8.34896e-015 -3.77691e-015
lhumerus -38.528 -18.4682 98.7165
lradius 71.7025
lwrist 10.0582
lhand -4.68879 -27.5167
lfingers 7.12502
lthumb 21.0924 1.35614
rfemur 0 0 0
rtibia 0
rfoot 0 0
rtoes 0
lfemur -11.8184 -7.46606 -9.56507
ltibia 26.7325
lfoot -18.6862 5.0216
ltoes -57.1193
659
root -0.466725 18.7278 5.57909 1.0871 11.806 -4.58683
lowerback 10.6775 4.002 3.11433
upperback -0.477143 5.7444 0.330927
thorax -6.20711 2.72322 -2.2931
lowerneck -8.91075 -10.7251 -9.8723
upperneck 15.8534 -15.5026 12.8914
head 8.17271 -6.97612 4.16503
rclavicle -1.31347e-013 -1.49089e-014
rhumerus -1.65144 6.86333 -72.1334
rradius 60.4237
rwrist -30.6637
rhand -11.3539 -48.9167
rfingers 7.12502
rthumb 14.6796 -438.377
lclavicle -1.31347e-013 -1.49089e-014
lhumerus -38.4616 -18.4675 98.7038
lradius 71.6395
lwrist 10.0222
lhand -4.66876 -27.4334
lfingers 7.12502
lthumb 21.1116 1.4373
rfemur 0 0 0
rtibia 0
rfoot 0 0
rtoes 0
lfemur -11.7946 -7.49068 -9.54046
ltibia 26.7398
lfoot -18.7302 5.06423
ltoes -57.1515
